# xmcd CD database file
#
# Track frame offsets:
#	150
#	21550
#	43060
#	79000
#	103672
#	130947
#	156470
#	178552
#	205380
#	233152
#	263287
#
# Disc length: 3788 seconds
#
# Revision: 5
# Processed by: cddbd v1.5PL3 Copyright (c) Steve Scherf et al.
# Submitted via: CDex 1.51
#
DISCID=910eca0b
DTITLE=Various Artist - Energizing: Life in Balance CD Series, Volume 2
DYEAR=2002
DGENRE=New Age
TTITLE0=Escape To Paradise
TTITLE1=Healing Waters
TTITLE2=Brave New World
TTITLE3=Safari
TTITLE4=Free Reign
TTITLE5=A Whole New Latitude
TTITLE6=Quest
TTITLE7=Think About It
TTITLE8=I Call Your Name
TTITLE9=Free Flight
TTITLE10=Horizon
EXTD=YEAR: 2002
EXTT0=
EXTT1=
EXTT2=
EXTT3=
EXTT4=
EXTT5=
EXTT6=
EXTT7=
EXTT8=
EXTT9=
EXTT10=
PLAYORDER=
